<?xml version="1.0" encoding="UTF-8" standalone="no"?>
<svg
   xmlns:dc="http://purl.org/dc/elements/1.1/"
   xmlns:cc="http://creativecommons.org/ns#"
   xmlns:rdf="http://www.w3.org/1999/02/22-rdf-syntax-ns#"
   xmlns:svg="http://www.w3.org/2000/svg"
   xmlns="http://www.w3.org/2000/svg"
   xmlns:sodipodi="http://sodipodi.sourceforge.net/DTD/sodipodi-0.dtd"
   xmlns:inkscape="http://www.inkscape.org/namespaces/inkscape"
   version="1.1"
   id="svg2"
   xml:space="preserve"
   width="426.66666"
   height="130.66667"
   viewBox="0 0 426.66666 130.66667"
   sodipodi:docname="логотип 1-2.eps"><metadata
     id="metadata8"><rdf:RDF><cc:Work
         rdf:about=""><dc:format>image/svg+xml</dc:format><dc:type
           rdf:resource="http://purl.org/dc/dcmitype/StillImage" /></cc:Work></rdf:RDF></metadata><defs
     id="defs6" /><sodipodi:namedview
     pagecolor="#ffffff"
     bordercolor="#666666"
     borderopacity="1"
     objecttolerance="10"
     gridtolerance="10"
     guidetolerance="10"
     inkscape:pageopacity="0"
     inkscape:pageshadow="2"
     inkscape:window-width="640"
     inkscape:window-height="480"
     id="namedview4" /><g
     id="g10"
     inkscape:groupmode="layer"
     inkscape:label="ink_ext_XXXXXX"
     transform="matrix(1.3333333,0,0,-1.3333333,0,130.66667)"><g
       id="g12"
       transform="scale(0.1)"><path
         d="M 729.109,13.1563 V 279.813 h 52.262 L 891.113,101.109 v 178.704 h 49.903 V 13.1563 H 887.078 L 779.012,188.445 V 13.1563 h -49.903"
         style="fill:#203d86;fill-opacity:1;fill-rule:nonzero;stroke:none"
         id="path14" /><path
         d="m 999.688,144.871 c 0,27.188 4.092,50.031 12.222,68.527 6.02,13.594 14.34,25.821 24.83,36.622 10.49,10.8 21.97,18.804 34.45,24.085 16.64,7.016 35.82,10.547 57.54,10.547 39.35,0 70.76,-12.226 94.41,-36.617 23.59,-24.457 35.38,-58.41 35.38,-101.922 0,-43.14 -11.73,-76.906 -35.13,-101.238 -23.4,-24.3906 -54.75,-36.55469 -93.91,-36.55469 -39.67,0 -71.26,12.10159 -94.66,36.37109 -23.41,24.207 -35.132,57.5976 -35.132,100.1796 z m 55.492,1.801 c 0,-30.227 7.01,-53.1329 20.98,-68.7697 13.96,-15.5859 31.72,-23.4023 53.19,-23.4023 21.54,0 39.17,7.7578 53.01,23.2109 13.78,15.5196 20.67,38.7341 20.67,69.7031 0,30.606 -6.71,53.445 -20.18,68.469 -13.4,15.082 -31.22,22.594 -53.5,22.594 -22.22,0 -40.16,-7.637 -53.75,-22.844 -13.59,-15.27 -20.42,-38.235 -20.42,-68.961"
         style="fill:#203d86;fill-opacity:1;fill-rule:nonzero;stroke:none"
         id="path16" /><path
         d="m 1381.55,13.1563 -95.4,266.6567 h 58.35 l 67.71,-197.3833 64.99,197.3833 h 57.35 L 1439.71,13.1563 h -58.16"
         style="fill:#203d86;fill-opacity:1;fill-rule:nonzero;stroke:none"
         id="path18" /><path
         d="m 1563.37,144.871 c 0,27.188 4.09,50.031 12.23,68.527 6.02,13.594 14.33,25.821 24.83,36.622 10.49,10.8 21.97,18.804 34.44,24.085 16.64,7.016 35.82,10.547 57.54,10.547 39.36,0 70.77,-12.226 94.41,-36.617 23.59,-24.457 35.38,-58.41 35.38,-101.922 0,-43.14 -11.73,-76.906 -35.13,-101.238 -23.4,-24.3906 -54.75,-36.55469 -93.91,-36.55469 -39.66,0 -71.26,12.10159 -94.66,36.37109 -23.4,24.207 -35.13,57.5976 -35.13,100.1796 z m 55.49,1.801 c 0,-30.227 7.02,-53.1329 20.98,-68.7697 13.96,-15.5859 31.71,-23.4023 53.2,-23.4023 21.53,0 39.16,7.7578 53,23.2109 13.78,15.5196 20.67,38.7341 20.67,69.7031 0,30.606 -6.7,53.445 -20.17,68.469 -13.41,15.082 -31.22,22.594 -53.5,22.594 -22.23,0 -40.16,-7.637 -53.76,-22.844 -13.59,-15.27 -20.42,-38.235 -20.42,-68.961"
         style="fill:#203d86;fill-opacity:1;fill-rule:nonzero;stroke:none"
         id="path20" /><path
         d="M 1876.27,13.1563 V 279.813 h 80.89 l 47.79,-181.8638 47.24,181.8638 h 81.06 V 13.1563 h -49.91 l -0.18,209.9257 -52.57,-209.9257 h -51.89 l -52.33,209.9257 -0.19,-209.9257 h -49.91"
         style="fill:#203d86;fill-opacity:1;fill-rule:nonzero;stroke:none"
         id="path22" /><path
         d="M 2200.05,13.1563 V 279.813 h 197.38 V 234.75 h -143.38 v -59.211 h 133.33 v -45.07 H 2254.05 V 58.2188 h 148.59 V 13.1563 h -202.59"
         style="fill:#203d86;fill-opacity:1;fill-rule:nonzero;stroke:none"
         id="path24" /><path
         d="m 2461.25,279.813 h 98.2 c 22.16,0 39.04,-1.676 50.64,-5.09 15.59,-4.59 28.99,-12.782 40.1,-24.578 11.18,-11.735 19.61,-26.133 25.45,-43.204 5.77,-17.003 8.69,-38.046 8.69,-63 0,-21.968 -2.73,-40.843 -8.19,-56.734 -6.65,-19.4257 -16.14,-35.1289 -28.49,-47.1132 -9.31,-9.1211 -21.92,-16.1954 -37.74,-21.2852 -11.86,-3.7891 -27.68,-5.6523 -47.55,-5.6523 h -101.11 z m 54,-45.063 V 58.2188 h 40.04 c 14.96,0 25.76,0.875 32.4,2.5468 8.75,2.1758 15.95,5.8985 21.66,11.1133 5.77,5.2149 10.43,13.7774 14.03,25.6992 3.66,11.9139 5.46,28.2379 5.46,48.8479 0,20.605 -1.8,36.375 -5.46,47.418 -3.6,11.051 -8.69,19.617 -15.21,25.824 -6.52,6.145 -14.77,10.367 -24.82,12.535 -7.46,1.68 -22.17,2.547 -44.02,2.547 h -24.08"
         style="fill:#203d86;fill-opacity:1;fill-rule:nonzero;stroke:none"
         id="path26" /><path
         d="m 2461.25,279.813 h 98.2 c 22.16,0 39.04,-1.676 50.64,-5.09 15.59,-4.59 28.99,-12.782 40.1,-24.578 11.18,-11.735 19.61,-26.133 25.45,-43.204 5.77,-17.003 8.69,-38.046 8.69,-63 0,-21.968 -2.73,-40.843 -8.19,-56.734 -6.65,-19.4257 -16.14,-35.1289 -28.49,-47.1132 -9.31,-9.1211 -21.92,-16.1954 -37.74,-21.2852 -11.86,-3.7891 -27.68,-5.6523 -47.55,-5.6523 h -101.11 z m 54,-45.063 V 58.2188 h 40.04 c 14.96,0 25.76,0.875 32.4,2.5468 8.75,2.1758 15.95,5.8985 21.66,11.1133 5.77,5.2149 10.43,13.7774 14.03,25.6992 3.66,11.9139 5.46,28.2379 5.46,48.8479 0,20.605 -1.8,36.375 -5.46,47.418 -3.6,11.051 -8.69,19.617 -15.21,25.824 -6.52,6.145 -14.77,10.367 -24.82,12.535 -7.46,1.68 -22.17,2.547 -44.02,2.547 z"
         style="fill:none;stroke:#2d3d75;stroke-width:2.16;stroke-linecap:butt;stroke-linejoin:miter;stroke-miterlimit:22.9256;stroke-dasharray:none;stroke-opacity:1"
         id="path28" /><path
         d="M 2743,13.1563 V 279.813 h 35.38 V 147.605 l 132.46,132.208 h 47.79 L 2846.78,171.688 2963.47,13.1563 h -46.55 L 2822.01,147.73 2778.38,105.52 V 13.1563 H 2743"
         style="fill:#203d86;fill-opacity:1;fill-rule:nonzero;stroke:none"
         id="path30" /><path
         d="m 2984.46,13.1563 v 32.5898 l 136.56,170.9449 c 9.8,12.043 18.99,22.653 27.74,31.84 H 3000.1 v 31.282 h 190.68 V 248.531 L 3041,63.5586 3024.99,44.4453 h 170.26 v -31.289 h -210.79"
         style="fill:#203d86;fill-opacity:1;fill-rule:nonzero;stroke:none"
         id="path32" /><path
         d="M 480.512,975.746 H 652.18 V 678.961 H 951.871 V 513.117 H 652.18 480.512 v 165.844 296.785"
         style="fill:#009fe3;fill-opacity:1;fill-rule:evenodd;stroke:none"
         id="path34" /><path
         d="M 480.508,38.8438 H 308.84 V 335.629 H 9.14844 V 501.477 H 308.84 480.508 V 335.629 38.8438"
         style="fill:#203d86;fill-opacity:1;fill-rule:evenodd;stroke:none"
         id="path36" /></g></g></svg>
